<svg xmlns="http://www.w3.org/2000/svg" width="36" height="36.5" viewBox="0 0 36 36.5">
    <defs>
        <style>
            .cls-3{fill:#6eaaad}.cls-4{fill:#fff}.cls-5{fill:#323c6b;stroke:#323c6b;stroke-width:.5px}.cls-6{fill:#ecbb81}.cls-8{fill:#fe7058}.cls-10{fill:#84879c}
        </style>
    </defs>
    <g id="BL" transform="translate(-102 -284.75)">
        <path id="Rectangle_6234" data-name="Rectangle 6234" d="M0 0h36v36H0z" transform="translate(102 285)" style="fill:none"/>
        <g id="worker" transform="translate(99.008 284.333)">
            <path id="Path_20556" data-name="Path 20556" d="m16.593 41.12-5.975 2.78a9.955 9.955 0 0 0-5.845 7.924l-.28 4.476h33.043l-.258-4.477a10 10 0 0 0-5.845-7.923L25.4 41.106" transform="translate(-.246 -19.886)" style="fill:#89c5cd"/>
            <path id="Path_20557" data-name="Path 20557" class="cls-3" d="M4.61 67.333 4.493 69.2h33.043l-.108-1.864z" transform="translate(-.246 -32.784)"/>
            <path id="Path_20558" data-name="Path 20558" class="cls-3" d="M54.9 51.823a10 10 0 0 0-5.842-7.923l-6.035-2.792h-2.69v.572h.967l6.035 2.793a10 10 0 0 1 5.84 7.927l.228 3.9h1.757z" transform="translate(-17.871 -19.886)"/>
            <path id="Path_20561" data-name="Path 20561" class="cls-4" d="m32.72 43.829-3.613 2.041-.8-4.75.036-.014z" transform="translate(-11.956 -19.886)"/>
            <path id="Path_20562" data-name="Path 20562" class="cls-5" d="M28.861 45.886a.258.258 0 0 1-.109-.024.254.254 0 0 1-.141-.187l-.8-4.75a.254.254 0 0 1 .157-.279.333.333 0 0 1 .264.006l4.38 2.723a.254.254 0 0 1-.009.437l-3.613 2.042a.254.254 0 0 1-.129.032zm-.461-4.532.656 3.879 2.925-1.653z" transform="translate(-11.71 -19.648)"/>
            <path id="Path_20563" data-name="Path 20563" class="cls-4" d="m36.993 43.829 3.613 2.042.8-4.75-.036-.014z" transform="translate(-16.229 -19.886)"/>
            <path id="Path_20564" data-name="Path 20564" class="cls-5" d="M40.359 45.879a.258.258 0 0 1-.126-.033l-3.612-2.041a.254.254 0 0 1-.009-.437l4.38-2.723a.254.254 0 0 1 .228-.02.3.3 0 0 1 .193.293l-.8 4.75a.254.254 0 0 1-.251.211zm-3.115-2.306 2.926 1.655.656-3.879z" transform="translate(-15.983 -19.641)"/>
            <path id="Path_20565" data-name="Path 20565" class="cls-6" d="M28.871 38.011 28.3 39.6l.037-.016 4.38 2.723 4.38-2.723.049.016-.568-1.589z" transform="translate(-11.955 -18.364)"/>
            <path id="Path_20566" data-name="Path 20566" d="M32.479 42.315a.254.254 0 0 1-.134-.038l-4.325-2.688a.23.23 0 0 1-.112-.056.249.249 0 0 1-.085-.264l.568-1.59a.254.254 0 0 1 .239-.168h7.71a.254.254 0 0 1 .239.168l.568 1.59a.254.254 0 0 1-.243.34l-4.292 2.668a.254.254 0 0 1-.133.038zm-4.1-3.1 4.1 2.547 4.107-2.553-.425-1.189h-7.352z" transform="translate(-11.714 -18.118)" style="fill:#323c6b"/>
            <path id="Path_20567" data-name="Path 20567" class="cls-8" d="m37.069 47.592-1.092 1.514h-1.956l-1.1-1.519L35 46.372z" transform="translate(-14.229 -22.476)"/>
            <path id="Path_20568" data-name="Path 20568" class="cls-5" d="M35.731 49.113h-1.955a.254.254 0 0 1-.206-.106l-1.095-1.519a.254.254 0 0 1 .077-.368l2.071-1.215a.254.254 0 0 1 .257 0l2.073 1.22a.254.254 0 0 1 .077.367l-1.093 1.514a.254.254 0 0 1-.206.106zm-1.825-.513h1.7l.853-1.182-1.7-1-1.7 1z" transform="translate(-13.983 -22.23)"/>
            <path id="Path_20569" data-name="Path 20569" class="cls-8" d="m32.548 59.079 2.265 2.454 2.266-2.454-1.288-7.329h-1.956z" transform="translate(-14.043 -25.121)"/>
            <g id="Group_15783" data-name="Group 15783" transform="translate(18.251 26.375)">
                <path id="Path_20570" data-name="Path 20570" class="cls-5" d="M34.567 61.542a.254.254 0 0 1-.187-.082l-2.265-2.454a.254.254 0 0 1-.064-.216l1.287-7.329a.254.254 0 0 1 .251-.21h1.956a.254.254 0 0 1 .251.21l1.287 7.329a.254.254 0 0 1-.064.216l-2.265 2.454a.254.254 0 0 1-.187.082zm-1.993-2.788 1.993 2.159 1.993-2.159-1.229-7H33.8z" transform="translate(-32.048 -51.25)"/>
            </g>
            <path id="Path_20573" data-name="Path 20573" d="M37.148 15.25v.033c0 6.921-3.836 11.372-8.578 11.372s-8.579-4.455-8.579-11.372c0-.318.016-.631.044-.944a15.635 15.635 0 0 0 10.637-3.049 9.818 9.818 0 0 0 6.476 3.96z" transform="translate(-7.868 -5.224)" style="fill:#ffd39f"/>
            <path id="Path_20574" data-name="Path 20574" class="cls-10" d="M37.19 10.272a9.81 9.81 0 0 1-6.476-3.964 15.616 15.616 0 0 1-10.637 3.049 8.811 8.811 0 0 1 8.535-8.19 8.869 8.869 0 0 1 8.578 9.105z" transform="translate(-7.91 -.246)"/>
            <path id="Path_20575" data-name="Path 20575" class="cls-6" d="M41.984 18.331v.141c.024 0 .048.01.072.012v.035c0 6.921-3.837 11.372-8.579 11.372-.088 0-.175-.012-.263-.015a7.3 7.3 0 0 0 1.858.244c4.742 0 8.578-4.451 8.578-11.372v-.033a7.841 7.841 0 0 1-1.666-.384z" transform="translate(-14.371 -8.686)"/>
            <path id="Path_20576" data-name="Path 20576" class="cls-10" d="M30.884 1.99a8.776 8.776 0 0 1 8.491 7.895 7.856 7.856 0 0 0 1.682.387 8.869 8.869 0 0 0-8.578-9.105 8.152 8.152 0 0 0-4.539 1.384 8.067 8.067 0 0 1 2.944-.561z" transform="translate(-11.777 -.246)"/>
            <path id="Path_20577" data-name="Path 20577" class="cls-5" d="M28.324 26.661c-5.118 0-8.833-4.889-8.833-11.626 0-.3.015-.62.045-.966a.254.254 0 0 1 .269-.231 15.41 15.41 0 0 0 10.458-2.994.254.254 0 0 1 .367.045 9.582 9.582 0 0 0 6.3 3.863.254.254 0 0 1 .226.254v.033c0 6.732-3.715 11.622-8.832 11.622zm-8.3-12.3c-.016.237-.024.46-.024.676 0 6.442 3.5 11.118 8.324 11.118 4.777 0 8.255-4.583 8.323-10.927a10.13 10.13 0 0 1-6.266-3.828 16 16 0 0 1-10.358 2.959z" transform="translate(-7.622 -4.976)"/>
            <path id="Path_20578" data-name="Path 20578" class="cls-5" d="M36.944 10.28h-.028a10.052 10.052 0 0 1-6.492-3.852 16.062 16.062 0 0 1-10.609 2.943.254.254 0 0 1-.236-.279A9.027 9.027 0 0 1 28.366.667c4.853 0 8.815 4.2 8.832 9.359a.254.254 0 0 1-.254.254zm-6.476-4.472h.032a.254.254 0 0 1 .174.1 9.68 9.68 0 0 0 6.012 3.823 8.609 8.609 0 0 0-8.318-8.557 8.5 8.5 0 0 0-8.253 7.7 15.325 15.325 0 0 0 10.191-3.006.254.254 0 0 1 .162-.058z" transform="translate(-7.664)"/>
            <path id="Path_20579" data-name="Path 20579" class="cls-5" d="M37.289 56.3H4.247a.254.254 0 0 1-.254-.27l.281-4.477a10.255 10.255 0 0 1 6-8.141l5.971-2.776a.254.254 0 1 1 .214.461l-5.977 2.779A9.74 9.74 0 0 0 4.78 51.6l-.263 4.193h32.5l-.244-4.208a9.8 9.8 0 0 0-5.691-7.707l-6.038-2.8a.254.254 0 1 1 .213-.461l6.043 2.799a10.31 10.31 0 0 1 5.987 8.125l.261 4.493a.254.254 0 0 1-.254.269z" transform="translate(0 -19.636)"/>
            <path id="Path_20580" data-name="Path 20580" class="cls-4" d="m37.234 55.093.068.426a.3.3 0 0 1-.591.094l-.068-.426a.3.3 0 1 1 .591-.094z" transform="translate(-16.054 -26.636)"/>
            <path id="Path_20581" data-name="Path 20581" class="cls-4" d="m37.691 58 .486 3.256a.3.3 0 0 1-.591.094l-.486-3.256a.3.3 0 0 1 .589-.094z" transform="translate(-16.279 -28.074)"/>
        </g>
    </g>
</svg>
