<svg xmlns="http://www.w3.org/2000/svg" width="36" height="36" viewBox="0 0 36 36">
    <defs>
        <style>
            .cls-1{fill:none}.cls-2{fill:#e1effb}.cls-3{fill:#ccdfed}.cls-5{fill:#333a60}.cls-6{fill:#ffca1d}
        </style>
    </defs>
    <g id="CL" transform="translate(-102 -285)">
        <path id="Rectangle_6234" data-name="Rectangle 6234" class="cls-1" d="M0 0h36v36H0z" transform="translate(102 285)"/>
        <g id="Automobile">
            <path id="Rectangle_6234-2" data-name="Rectangle 6234" class="cls-1" d="M0 0h36v36H0z" transform="translate(102 285)"/>
            <g id="Group_13184" data-name="Group 13184" transform="translate(102 285)">
                <g id="daily-needs-icn">
                    <path id="Rectangle_91" data-name="Rectangle 91" class="cls-1" d="M0 0h36v36H0z"/>
                </g>
                <path id="Rectangle_27" data-name="Rectangle 27" class="cls-1" d="M0 0h36v36H0z"/>
            </g>
            <g id="automobile-2" data-name="automobile" transform="translate(102 285)">
                <path id="Rectangle_53" data-name="Rectangle 53" class="cls-1" d="M0 0h36v36H0z"/>
                <g id="Group_13586" data-name="Group 13586" transform="translate(2.571 7.371)">
                    <path id="Path_20554" data-name="Path 20554" class="cls-2" d="M423.776 347.988c.433-1.274.873 0 2 0h14.917c.349 0 2.856-.809 3.167-.65-.54-.951-1.417-6.6-4.246-6.749h-14.976a2.923 2.923 0 0 0-2.609 2.141 44.771 44.771 0 0 0-.936 4.469c.338.034.845.083 1.483.138.214-1.172.976 1.312 1.2.651z" transform="translate(-416.681 -339.692)"/>
                    <path id="Path_4955" data-name="Path 4955" class="cls-3" d="M423.31 344.01a2.923 2.923 0 0 1 2.609-2.141h14.975a2.218 2.218 0 0 1 1 .243 2.7 2.7 0 0 0-2.282-1.523h-14.974a2.923 2.923 0 0 0-2.609 2.141 44.771 44.771 0 0 0-.936 4.469c.338.034.845.083 1.483.138a31.774 31.774 0 0 1 .734-3.327z" transform="translate(-416.681 -339.692)"/>
                    <path id="Path_20555" data-name="Path 20555" class="cls-2" d="m413.694 366.32 2.36 1.661c0-.6 1.229.445 1.667 0 .307-.313 1.793.074 2.333-.334.954.1 3.843 0 9 0 5.125 0 10.708.1 11.75 0 .292.215 1.424-1.65 1.833-1.327-.138-.214.178-5.735 0-5.918-.339-.349-2.726-2.447-3.263-2.843-1.041.105-6.4.619-11.527.619-5.157 0-10.355-.521-11.309-.622-.54.409-1.633 1.252-1.941 1.565a3.122 3.122 0 0 0-.9 1.839v4.078a2.2 2.2 0 0 0 1.422 2.056c-.097-.246-1.425-.509-1.425-.774z" transform="translate(-412.541 -349.185)"/>
                    <path id="Path_4956" data-name="Path 4956" class="cls-3" d="M414.974 366.32v-4.078a3.124 3.124 0 0 1 .9-1.84c.307-.313 1.4-1.156 1.941-1.564.954.1 6.152.622 11.309.622 5.125 0 10.486-.515 11.528-.619.292.215.748.557 1.157.881a3.852 3.852 0 0 0-.475-.6 24.115 24.115 0 0 0-1.963-1.566c-1.041.105-6.4.619-11.527.619-5.157 0-10.355-.521-11.309-.622-.54.409-1.633 1.252-1.941 1.565a3.122 3.122 0 0 0-.9 1.839v4.078a2.2 2.2 0 0 0 1.422 2.056 2.189 2.189 0 0 1-.142-.771z" transform="translate(-412.541 -349.185)"/>
                    <path id="Path_4957" data-name="Path 4957" d="M466.756 380.467h-.9v2.509a1.135 1.135 0 0 0 1.115 1.14h2.215a1.112 1.112 0 0 0 1.087-1.14V380.4h-.9" transform="translate(-441.725 -361.966)" style="fill:#1ae5be"/>
                    <path id="Path_4960" data-name="Path 4960" class="cls-5" d="M444.805 373.731a.448.448 0 0 0-.448-.448h-8.686a.448.448 0 0 0 0 .9h8.686a.448.448 0 0 0 .448-.452z" transform="translate(-424.585 -357.983)"/>
                    <path id="Path_4961" data-name="Path 4961" class="cls-5" d="M416.309 380.4v2.574a1.112 1.112 0 0 0 1.088 1.139h2.068a1.152 1.152 0 0 0 1.134-1.139v-2.509" transform="translate(-414.004 -361.966)"/>
                    <path id="Path_4962" data-name="Path 4962" class="cls-5" d="M465.86 380.467v2.509a1.135 1.135 0 0 0 1.115 1.14h2.215a1.112 1.112 0 0 0 1.087-1.14V380.4" transform="translate(-441.725 -361.966)"/>
                    <path id="Path_4964" data-name="Path 4964" class="cls-5" d="M443.595 363.693h-14.332a.442.442 0 0 0-.426.581l.424 1.3a2.412 2.412 0 0 0 2.182 1.58h9.936a2.444 2.444 0 0 0 2.2-1.571l.444-1.3a.438.438 0 0 0-.06-.4.443.443 0 0 0-.368-.19z" transform="translate(-421.001 -352.618)"/>
                    <path id="Path_4965" data-name="Path 4965" class="cls-6" d="M471.388 364.567a.448.448 0 0 0 .015-.9h-.009c-.1 0-2.408-.014-2.96 0a3.441 3.441 0 0 0-2.931 1.388 3.2 3.2 0 0 0-.447 1.631.445.445 0 0 0 .445.445h5.927a.448.448 0 0 0 0-.9" transform="translate(-441.275 -352.602)"/>
                    <path id="Path_4966" data-name="Path 4966" class="cls-6" d="M412.108 366.237a.448.448 0 0 0 0 .9h5.924a.445.445 0 0 0 .448-.442 3.208 3.208 0 0 0-.447-1.632 3.44 3.44 0 0 0-2.931-1.387c-.552-.014-2.834 0-2.931 0a.448.448 0 1 0 .005.9" transform="translate(-411.404 -352.602)"/>
                    <path id="Path_4968" data-name="Path 4968" class="cls-5" d="M439.886 344.252h-.192a2.04 2.04 0 0 0-1.463.616 27.316 27.316 0 0 0-.8-3.57 3.8 3.8 0 0 0-3.418-2.744h-14.978a3.811 3.811 0 0 0-3.457 2.749 33.64 33.64 0 0 0-.788 3.568 2.039 2.039 0 0 0-1.471-.619h-.192a2.051 2.051 0 0 0-2.049 2.049.448.448 0 0 0 .448.448h2.308c-.506.393-1.1.867-1.339 1.114a3.99 3.99 0 0 0-1.16 2.468v4.078a3.1 3.1 0 0 0 3.1 3.095h24.152a3.1 3.1 0 0 0 3.1-3.095v-4.078a3.758 3.758 0 0 0-1.163-2.461 15.617 15.617 0 0 0-1.352-1.121h2.323a.448.448 0 0 0 .448-.448 2.051 2.051 0 0 0-2.057-2.049zm-23.46-2.66a2.923 2.923 0 0 1 2.609-2.141h14.975a2.934 2.934 0 0 1 2.579 2.161 36.446 36.446 0 0 1 .938 4.449c-1.514.147-6.43.589-11.143.589-4.689 0-9.414-.439-10.893-.588a44.761 44.761 0 0 1 .935-4.47zm-3.3 3.556h.192a1.154 1.154 0 0 1 1.062.7h-2.315a1.153 1.153 0 0 1 1.062-.7zm26.747 3.346a2.908 2.908 0 0 1 .909 1.836v4.078a2.2 2.2 0 0 1-2.2 2.2h-24.151a2.2 2.2 0 0 1-2.2-2.2v-4.078a3.123 3.123 0 0 1 .9-1.84c.307-.313 1.4-1.156 1.941-1.565.954.1 6.152.622 11.309.622 5.125 0 10.486-.514 11.527-.62a24.132 24.132 0 0 1 1.965 1.567zm-1.241-2.642a1.154 1.154 0 0 1 1.062-.7h.192a1.153 1.153 0 0 1 1.061.7z" transform="translate(-411.078 -338.554)"/>
                </g>
            </g>
        </g>
    </g>
</svg>
