<svg xmlns="http://www.w3.org/2000/svg" width="36" height="36" viewBox="0 0 36 36">
    <defs>
        <style>
            .cls-2{fill:#fcc309}.cls-3{fill:#fd9808}.cls-8{fill:#333a60}
        </style>
    </defs>
    <g id="cc" transform="translate(-102 -285)">
        <path id="Rectangle_6234" data-name="Rectangle 6234" d="M0 0h36v36H0z" transform="translate(102 285)" style="fill:none"/>
        <g id="credit-card" transform="translate(105 243.986)">
            <path id="Path_20742" data-name="Path 20742" class="cls-2" d="m59.893 128.1-1.8-.164v14.4a1.607 1.607 0 0 1-1.637 1.637H31.308l-.055.273a1.643 1.643 0 0 0 1.473 1.8l25.2 2.837a1.643 1.643 0 0 0 1.8-1.473l1.64-17.51a1.643 1.643 0 0 0-1.473-1.8" transform="translate(-30.18 -76.682)"/>
            <path id="Path_20743" data-name="Path 20743" class="cls-3" d="M432.731 152.131a1.643 1.643 0 0 0 1.8-1.473l1.637-17.511a1.643 1.643 0 0 0-1.473-1.8h-.327a1.665 1.665 0 0 1 .709 1.527l-1.637 17.511a1.726 1.726 0 0 1-1.8 1.473z" transform="translate(-404.982 -79.878)"/>
            <path id="Path_20744" data-name="Path 20744" d="M34.263 75.277H9.17a1.607 1.607 0 0 1-1.637-1.637V56.184a1.607 1.607 0 0 1 1.637-1.637h25.093a1.607 1.607 0 0 1 1.637 1.637V73.64a1.607 1.607 0 0 1-1.636 1.636" transform="translate(-7.988 -7.988)" style="fill:#ffdd09"/>
            <path id="Path_20745" data-name="Path 20745" class="cls-2" d="M7.533 101.577H35.9v-4.364H7.533z" transform="translate(-7.988 -47.926)"/>
            <path id="Path_20746" data-name="Path 20746" class="cls-3" d="M401.7 54.547h-1.637a1.607 1.607 0 0 1 1.637 1.637V73.64a1.607 1.607 0 0 1-1.637 1.637h1.637a1.607 1.607 0 0 0 1.637-1.637V56.184a1.607 1.607 0 0 0-1.637-1.637" transform="translate(-375.428 -7.988)"/>
            <path id="Path_20747" data-name="Path 20747" d="M9.17 54.547h1.637a1.607 1.607 0 0 0-1.637 1.637V73.64a1.607 1.607 0 0 0 1.637 1.637H9.17a1.607 1.607 0 0 1-1.637-1.637V56.184a1.607 1.607 0 0 1 1.637-1.637" transform="translate(-7.988 -7.988)" style="fill:#ebebeb"/>
            <path id="Path_20748" data-name="Path 20748" d="M272.067 255.723h8.733v-4.91h-8.728z" transform="translate(-255.61 -191.707)" style="fill:#54c9fd"/>
            <path id="Path_20749" data-name="Path 20749" d="M384.637 255.723v-4.91H383v4.91z" transform="translate(-359.452 -191.707)" style="fill:#33a9f8"/>
            <path id="Path_20750" data-name="Path 20750" class="cls-8" d="M26.276 67.835H1.182A2.188 2.188 0 0 1-1 65.653V48.2a2.188 2.188 0 0 1 2.182-2.182h25.094a2.188 2.188 0 0 1 2.182 2.182v17.453a2.188 2.188 0 0 1-2.182 2.182zM1.182 47.1a1.094 1.094 0 0 0-1.091 1.1v17.453a1.094 1.094 0 0 0 1.091 1.091h25.094a1.094 1.094 0 0 0 1.091-1.091V48.2a1.094 1.094 0 0 0-1.091-1.1z"/>
            <path id="Path_20751" data-name="Path 20751" class="cls-8" d="M27.912 94.135H-.455A.515.515 0 0 1-1 93.59v-4.365a.515.515 0 0 1 .545-.545h28.367a.515.515 0 0 1 .545.545v4.365a.515.515 0 0 1-.545.545zM.091 93.044h27.276v-3.273H.091z" transform="translate(0 -39.938)"/>
            <path id="Path_20752" data-name="Path 20752" class="cls-8" d="M272.808 248.282h-8.728a.515.515 0 0 1-.546-.545v-4.91a.515.515 0 0 1 .546-.545h8.728a.515.515 0 0 1 .545.545v4.91a.515.515 0 0 1-.545.545zm-8.183-1.091h7.637v-3.819h-7.637z" transform="translate(-247.623 -183.72)"/>
            <path id="Path_20753" data-name="Path 20753" class="cls-8" d="M38.044 209.238h-4.365a.545.545 0 1 1 0-1.091h4.364a.545.545 0 1 1 0 1.091z" transform="translate(-31.952 -151.768)"/>
            <path id="Path_20754" data-name="Path 20754" class="cls-8" d="M140.443 209.238h-4.364a.545.545 0 1 1 0-1.091h4.364a.545.545 0 1 1 0 1.091z" transform="translate(-127.805 -151.768)"/>
            <path id="Path_20755" data-name="Path 20755" class="cls-8" d="M40.771 243.372h-7.092a.545.545 0 1 1 0-1.091h7.092a.545.545 0 1 1 0 1.091z" transform="translate(-31.952 -183.72)"/>
            <path id="Path_20756" data-name="Path 20756" class="cls-8" d="M180.382 243.372h-1.637a.545.545 0 1 1 0-1.091h1.637a.545.545 0 1 1 0 1.091z" transform="translate(-167.744 -183.72)"/>
            <path id="Path_20757" data-name="Path 20757" class="cls-8" d="M50.788 141.924h-.218l-25.2-2.837a2.123 2.123 0 0 1-1.909-2.4l.055-.273a.489.489 0 0 1 .491-.491h25.145a1.094 1.094 0 0 0 1.091-1.091v-14.4a.487.487 0 0 1 .6-.491l1.8.218a2.032 2.032 0 0 1 1.473.818 2.12 2.12 0 0 1 .491 1.582l-1.637 17.51a2.184 2.184 0 0 1-2.182 1.855zm-26.239-4.91a1.1 1.1 0 0 0 .982.982l25.148 2.837a1.1 1.1 0 0 0 1.2-.982l1.637-17.511a1.105 1.105 0 0 0-.218-.818.933.933 0 0 0-.709-.382l-1.255-.109v13.8a2.188 2.188 0 0 1-2.182 2.182h-24.6z" transform="translate(-22.876 -69.18)"/>
        </g>
    </g>
</svg>
