<svg xmlns="http://www.w3.org/2000/svg" width="36.001" height="36" viewBox="0 0 36.001 36">
    <defs>
        <clipPath id="clip-path">
            <path id="Rectangle_6575" data-name="Rectangle 6575" transform="translate(19.807 299.749)" style="fill:#fff;opacity:0" d="M0 0h35v28H0z"/>
        </clipPath>
        <style>
            .cls-4{fill:#365e7d}.cls-7{fill:#3f6d8e}.cls-8{fill:#ffd064}.cls-10{fill:#ffe07d}
        </style>
    </defs>
    <g id="EL" transform="translate(-102 -285)">
        <path id="Rectangle_6234" data-name="Rectangle 6234" d="M0 0h36v36H0z" transform="translate(102 285)" style="fill:none"/>
        <g id="Mask_Group_1" data-name="Mask Group 1" transform="translate(83.194 -10.749)" style="clip-path:url(#clip-path)">
            <g id="mortarboard" transform="translate(20.049 301.647)">
                <g id="Group_43784" data-name="Group 43784" transform="translate(.491 .511)">
                    <path id="Path_20686" data-name="Path 20686" class="cls-4" d="m27.615 62.179.317.654s5.009 4.072 9.3 4.072 9.324-4.072 9.324-4.072l.29-.654a47.657 47.657 0 0 1-1.49-5.5l-.917-.519H29.881l-.782.512a45.528 45.528 0 0 1-1.483 5.508z" transform="translate(-20.482 -46.32)"/>
                    <path id="Path_20687" data-name="Path 20687" d="m31.869 56.381.337-.222h-2.319l-.782.512a46.115 46.115 0 0 1-1.49 5.508l.317.654a22.491 22.491 0 0 0 1.968 1.389c.7-2.34 1.416-5.043 1.969-7.841z" transform="translate(-20.482 -46.32)" style="fill:#294b64"/>
                    <path id="Path_20688" data-name="Path 20688" d="m34.967 25.93-15.595-5.265a2.628 2.628 0 0 0-1.672 0L2.106 25.93a.473.473 0 0 0-.054.876L17.4 34.284a2.629 2.629 0 0 0 2.292 0l15.345-7.477a.477.477 0 0 0-.067-.876z" transform="translate(-1.782 -20.528)" style="fill:#477b9e"/>
                    <path id="Path_20689" data-name="Path 20689" class="cls-7" d="M6.765 26.831a.475.475 0 0 1 .054-.876l14.07-4.755-1.524-.512a2.628 2.628 0 0 0-1.672 0l-15.587 5.26a.473.473 0 0 0-.054.876L17.4 34.3a2.63 2.63 0 0 0 2.292 0l1.214-.593z" transform="translate(-1.782 -20.546)"/>
                    <path id="Path_20690" data-name="Path 20690" class="cls-8" d="M107.458 90.317h-1.773l-.209 3.277a.461.461 0 0 0 .458.5h1.281a.469.469 0 0 0 .458-.5z" transform="translate(-76.842 -71.046)"/>
                    <path id="Path_20691" data-name="Path 20691" d="m106.629 93.594.209-3.277h-1.153l-.209 3.277a.461.461 0 0 0 .458.5h1.153a.461.461 0 0 1-.458-.5z" transform="translate(-76.842 -71.046)" style="fill:#f2ab08"/>
                    <path id="Path_20692" data-name="Path 20692" class="cls-10" d="M106.824 81.8H106a.744.744 0 0 0-.742.742v1.477a.242.242 0 0 0 .243.243h1.82a.242.242 0 0 0 .243-.243v-1.482a.739.739 0 0 0-.742-.742z" transform="translate(-76.687 -64.878)"/>
                    <path id="Path_20693" data-name="Path 20693" class="cls-8" d="M106.568 84.007v-1.47a.744.744 0 0 1 .5-.7.705.705 0 0 0-.243-.04H106a.744.744 0 0 0-.742.742v1.477a.242.242 0 0 0 .243.243h1.3a.251.251 0 0 1-.236-.249z" transform="translate(-76.687 -64.878)"/>
                    <path id="Path_20694" data-name="Path 20694" class="cls-7" d="M58.158 32.758a1.677 1.677 0 0 0-1.78 1.672v.007a.789.789 0 0 0 .8.775h1.76a.791.791 0 0 0 .8-.863 1.681 1.681 0 0 0-1.571-1.591z" transform="translate(-41.303 -29.379)"/>
                    <path id="Path_20695" data-name="Path 20695" class="cls-4" d="M57.877 34.437v-.007a1.669 1.669 0 0 1 .91-1.49 1.629 1.629 0 0 0-.654-.182 1.677 1.677 0 0 0-1.78 1.672v.007a.789.789 0 0 0 .8.775h1.517a.791.791 0 0 1-.789-.775z" transform="translate(-41.285 -29.379)"/>
                    <path id="Path_20696" data-name="Path 20696" class="cls-10" d="M45.414 77.962a24.99 24.99 0 0 1-7.706 4.059 6.265 6.265 0 0 1-3.836 0 24.859 24.859 0 0 1-7.706-4.059 59.51 59.51 0 0 1-.452 1.3 1.493 1.493 0 0 0 .479 1.692 25.218 25.218 0 0 0 7.679 4.039 6.172 6.172 0 0 0 1.915.3 6.313 6.313 0 0 0 1.915-.3 25.067 25.067 0 0 0 7.679-4.039 1.493 1.493 0 0 0 .479-1.692c-.123-.356-.278-.794-.446-1.3z" transform="translate(-19.039 -62.103)"/>
                    <path id="Path_20697" data-name="Path 20697" class="cls-8" d="M28.565 79.621a18.951 18.951 0 0 1-2.4-1.659 59.51 59.51 0 0 1-.452 1.3 1.493 1.493 0 0 0 .479 1.692c.533.418 1.072.8 1.6 1.153q.384-1.163.769-2.488z" transform="translate(-19.039 -62.103)"/>
                </g>
                <path id="Path_20698" data-name="Path 20698" d="m33.856 24.113-9.769-3.3c-.013-.007-.027-.007-.04-.013l-5.778-1.955a3.158 3.158 0 0 0-2 0L.671 24.113a.983.983 0 0 0-.115 1.814l8 3.9a47.791 47.791 0 0 1-1.841 6.344 2.009 2.009 0 0 0 .64 2.265 25.511 25.511 0 0 0 7.834 4.119 6.8 6.8 0 0 0 4.146 0 25.435 25.435 0 0 0 7.834-4.119 2 2 0 0 0 .64-2.265 47.887 47.887 0 0 1-1.841-6.344L29.736 28v7.612a1.249 1.249 0 0 0-1.153 1.241v1.477a.753.753 0 0 0 .243.553l-.189 2.838a.964.964 0 0 0 .957 1.025h1.281a.96.96 0 0 0 .957-1.025l-.189-2.838a.742.742 0 0 0 .243-.553v-1.481a1.244 1.244 0 0 0-1.153-1.241V27.99a1.7 1.7 0 0 0-.067-.452l3.3-1.6a.986.986 0 0 0-.11-1.825zm-6.992 12.405a.987.987 0 0 1-.317 1.119 24.6 24.6 0 0 1-7.517 3.951 5.777 5.777 0 0 1-3.526 0 24.446 24.446 0 0 1-7.517-3.951.987.987 0 0 1-.317-1.119c0-.007.007-.013.007-.027.074-.2.155-.431.216-.614a25 25 0 0 0 8.1 3.9 8.06 8.06 0 0 0 2.549 0 24.964 24.964 0 0 0 8.1-3.9c.067.21.148.439.222.641zm-.573-1.645a23.937 23.937 0 0 1-7.942 3.927 8.865 8.865 0 0 1-2.171 0 23.945 23.945 0 0 1-7.942-3.924A49.835 49.835 0 0 0 9.5 30.282l6.4 3.118a3.1 3.1 0 0 0 2.737 0l6.4-3.122a46.536 46.536 0 0 0 1.254 4.595zm3.358 6.857.175-2.656h.823l.175 2.656zm1.241-4.881v1.214h-1.295v-1.214a.239.239 0 0 1 .236-.236h.823a.244.244 0 0 1 .235.236zM30.066 26.7a1.587 1.587 0 0 0-.472-.216l-10.187-2.661a2.18 2.18 0 0 0-4.322.411v.013a1.3 1.3 0 0 0 1.3 1.281h1.755a1.294 1.294 0 0 0 1.146-.681l9.506 2.481c-3 1.463-9.742 4.753-10.605 5.171a2.092 2.092 0 0 1-1.847 0L1.062 25.05l15.527-5.25a2.1 2.1 0 0 1 1.348 0L24 21.854c.013.007.027.007.04.013l9.425 3.182zM18.43 24.18a.288.288 0 0 1-.29.337h-1.753a.289.289 0 0 1-.29-.27v-.007a1.139 1.139 0 0 1 .371-.85 1.163 1.163 0 0 1 1.962.79z" transform="translate(-.005 -18.679)" style="fill:#333a60"/>
            </g>
        </g>
    </g>
</svg>
