<svg xmlns="http://www.w3.org/2000/svg" width="36" height="36" viewBox="0 0 36 36">
    <path data-name="Rectangle 6234" d="M0 0h36v36H0z" style="fill:none"/>
    <path data-name="Path 20541" d="M123.323 75.886h-3.557l-.01-5.993a.3.3 0 0 1 .3-.3h2.949a.3.3 0 0 1 .3.3z" transform="translate(-111.337 -64.205)" style="fill:#ffb125"/>
    <path data-name="Path 20543" d="m128.155 68.044-9.527 8.975.019 13.644a.652.652 0 0 0 .653.651l17.776-.025a.652.652 0 0 0 .651-.653l-.019-13.644z" transform="translate(-110.287 -62.769)" style="fill:#e1effb"/>
    <path data-name="Path 20544" d="m242.905 76.992-9.552-8.948-1.571 1.48 7.972 7.468.019 13.644a.652.652 0 0 1-.651.653h3.151a.652.652 0 0 0 .651-.653z" transform="translate(-215.485 -62.769)" style="fill:#ccdfed"/>
    <path data-name="Path 20545" d="M79.385 43.47a1.306 1.306 0 0 1-.9-.354L66.473 31.86 54.489 43.149a1.31 1.31 0 1 1-1.8-1.907l12.88-12.133a1.31 1.31 0 0 1 1.794 0L80.279 41.2a1.31 1.31 0 0 1-.894 2.266z" transform="translate(-48.604 -26.24)" style="fill:#ff4c4c"/>
    <path data-name="Path 20547" d="m218.924 228.014-4.9.007a.416.416 0 0 0-.415.417l.016 11.59 5.73-.008-.016-11.59a.416.416 0 0 0-.415-.416z" transform="translate(-198.591 -211.491)" style="fill:#2d5871"/>
    <path data-name="Path 20548" d="M253 228.43a.416.416 0 0 0-.417-.415h-2.767a.416.416 0 0 1 .292.4l.016 11.609h2.892z" transform="translate(-232.255 -211.492)" style="fill:#1d4859"/>
    <path data-name="Path 20549" d="m60.855 289.436-7.219 4.831-2.151-.121-.085-.846a2.749 2.749 0 0 0-2.35-2.45l-5.764-.664a10.331 10.331 0 0 1-3.769-1.312 10.331 10.331 0 0 0-5.216-1.414h-4.156v9.486l10.984 4.159a2.989 2.989 0 0 0 1.277.085h.008l11.058-1.59a4.893 4.893 0 0 0 2.321-1.04l7.147-6.428a1.706 1.706 0 0 0 .278-2.236 1.706 1.706 0 0 0-2.363-.46z" transform="translate(-28.025 -266.758)" style="fill:#fed9a8"/>
    <path data-name="Path 20550" d="m63.312 324.285-7.064 5.946a6.043 6.043 0 0 1-2.632 1.04l-11.2.8h-.008a2.99 2.99 0 0 1-1.277-.085l-10.984-4.159v3.353l10.984 4.159a3.146 3.146 0 0 0 .634.112q.08.006.161.007a2.81 2.81 0 0 0 .482-.034h.008l11.058-1.594a4.9 4.9 0 0 0 .781-.192l.151-.053a4.891 4.891 0 0 0 .726-.34q.07-.04.138-.082a4.887 4.887 0 0 0 .525-.373l7.147-6.428a1.706 1.706 0 0 0 .37-2.077z" transform="translate(-28.025 -300.993)" style="fill:#f4c892"/>
    <path data-name="Path 20551" d="M10.314 271.293H8.67a1.362 1.362 0 0 1-1.362-1.362v-12.169A1.362 1.362 0 0 1 8.67 256.4h1.644a1.362 1.362 0 0 1 1.362 1.362v12.168a1.362 1.362 0 0 1-1.362 1.363z" transform="translate(-6.794 -237.881)" style="fill:#fcd555"/>
    <path data-name="Path 20553" d="M35.617 42.307a2.225 2.225 0 0 0-3.073-.594l-4.594 3.074-.013-9.57 1.6 1.5a1.817 1.817 0 0 0 1.247.493 1.831 1.831 0 0 0 1.329-.577 1.824 1.824 0 0 0-.084-2.578L29 31.215a.514.514 0 0 0-.7.75l3.024 2.835a.8.8 0 0 1-.544 1.377.793.793 0 0 1-.544-.215l-2.463-2.307-9.553-8.949a.514.514 0 0 0-.7 0l-9.531 8.976L5.532 36a.8.8 0 0 1-1.092-1.163L17.32 22.7a.8.8 0 0 1 1.09 0l9.89 9.265c.207.194.18-.02.374-.227s.536-.329.329-.523l-9.887-9.262a1.827 1.827 0 0 0-2.5 0l-4.124 3.887v-.693a.818.818 0 0 0-.817-.816H8.726a.817.817 0 0 0-.816.819l.008 5-4.183 3.939a1.824 1.824 0 0 0 1.2 3.151h.056a1.811 1.811 0 0 0 1.249-.5l1.593-1.5.006 4.52a10.828 10.828 0 0 0-1.56-.114H5.4v-.308a1.878 1.878 0 0 0-1.88-1.872H1.876A1.878 1.878 0 0 0 0 39.342v11.052a.514.514 0 0 0 1.028 0V39.342a.849.849 0 0 1 .848-.848H3.52a.849.849 0 0 1 .848.848v12.169a.849.849 0 0 1-.848.848H1.876a.849.849 0 0 1-.848-.848v-.9a.514.514 0 0 0-1.028 0v.9a1.878 1.878 0 0 0 1.876 1.876H3.52a1.878 1.878 0 0 0 1.88-1.876v-.07l7.525 2.85.042.014a3.589 3.589 0 0 0 .977.139 3.326 3.326 0 0 0 .52-.041l11.059-1.594h.008a5.414 5.414 0 0 0 2.565-1.149l.019-.016 7.145-6.426a2.225 2.225 0 0 0 .357-2.911zM11.464 25.359v1.448l-2.523 2.379-.006-3.823zm-2.6 14.6-.008-5.687 9.014-8.491 9.038 8.466.016 11.221-1.455.974-1.541-.086-.041-.409a3.254 3.254 0 0 0-2.614-2.877l-.01-6.67a.931.931 0 0 0-.93-.929l-4.9.007a.93.93 0 0 0-.929.931l.008 5.821a9.766 9.766 0 0 1-2.762-1.095q-.162-.095-.327-.184l-.13-.067c-.067-.035-.134-.07-.2-.1l-.163-.084-.173-.081-.178-.078-.163-.07-.184-.074-.164-.063-.184-.066-.174-.058-.177-.057-.19-.058-.164-.047-.215-.057zm6.67-3.459 4.7-.007.009 6.448-4.3-.495-.4-.047zm19.037 7.95-7.137 6.419a4.385 4.385 0 0 1-2.064.923l-11.055 1.593H14.3a2.45 2.45 0 0 1-1.037-.066L5.4 50.342v-9.664h.879a9.812 9.812 0 0 1 2.216.254l.081.019c.089.021.178.044.266.067l.023.006q.133.036.265.076l.047.014q.14.043.279.091l.029.01q.289.1.572.218l.031.013q.141.059.28.123h.007q.135.062.267.128l.031.015q.13.065.258.134l.048.026c.086.047.172.095.256.144a10.794 10.794 0 0 0 3.954 1.384h.013l5.757.663.095.016a2.229 2.229 0 0 1 1.74 1.6 2.258 2.258 0 0 1 .069.374l.023.23-10.786-.945a.514.514 0 0 0-.09 1.024l11.408 1h.016l2.151.121h.093l.045-.009.032-.007a.5.5 0 0 0 .048-.018l.026-.01a.507.507 0 0 0 .07-.039l1.826-1.222 5.393-3.609a1.193 1.193 0 0 1 1.455 1.884z" style="fill:#333a60" transform="translate(0 -19.461)"/>
</svg>
