<svg xmlns="http://www.w3.org/2000/svg" width="36" height="36" viewBox="0 0 36 36">
    <path data-name="Rectangle 34657" style="fill:none" d="M0 0h36v36H0z"/>
    <path data-name="Path 67615" d="m387.7 335.186 4.186-4.186h13.482a1.538 1.538 0 0 1 1.538 1.538v23.54a1.538 1.538 0 0 1-1.538 1.538h-16.123a1.538 1.538 0 0 1-1.538-1.538z" transform="translate(-377.418 -326.498)" style="fill:#eef6ff"/>
    <path data-name="Path 67616" d="m391.15 343.4-3.35 3.35v1.157h2.254a1.11 1.11 0 0 0 1.1-1.117z" transform="translate(-377.512 -338.069)" style="fill:#abbfd9"/>
    <path data-name="Path 67617" d="m391.886 331-4.186 4.186h3.464a.724.724 0 0 0 .722-.722V331z" transform="translate(-377.418 -326.498)" style="fill:#6985a8"/>
    <g data-name="Group 49196">
        <path data-name="Path 67618" d="M399.676 324.9h-13.482a.389.389 0 0 0-.288.12l-4.186 4.186a.4.4 0 0 0-.12.288v20.892a1.955 1.955 0 0 0 1.953 1.953h10.874a.4.4 0 0 0 .408-.415.4.4 0 0 0-.408-.408h-10.874a1.133 1.133 0 0 1-1.13-1.13V329.9h3.056a1.133 1.133 0 0 0 1.13-1.13v-3.056h13.067a1.133 1.133 0 0 1 1.13 1.13v6.988a.41.41 0 0 0 .408.408.414.414 0 0 0 .408-.408v-6.982a1.954 1.954 0 0 0-1.946-1.95zm-13.89 3.872a.311.311 0 0 1-.308.308H383l2.782-2.782z" transform="translate(-371.726 -320.806)" style="fill:#323c6b"/>
        <path data-name="Path 67619" d="M441.086 671.649h4.594a.374.374 0 1 0 0-.749h-4.594a.374.374 0 0 0 0 .749z" transform="translate(-426.886 -643.668)" style="fill:#333a60"/>
        <path data-name="Path 67620" d="M505.463 385.856a.378.378 0 0 0 0-.756h-7.577a.378.378 0 0 0 0 .756z" transform="translate(-479.887 -376.981)" style="fill:#323c6b"/>
        <path data-name="Path 67621" d="M440.7 440.681a.374.374 0 0 0 .375.375h11.375a.378.378 0 0 0 0-.756h-11.376a.375.375 0 0 0-.374.381z" transform="translate(-426.874 -428.489)" style="fill:#323c6b"/>
        <path data-name="Path 67622" d="M441.074 484.856h11.376a.378.378 0 0 0 0-.756h-11.376a.374.374 0 0 0-.375.375.38.38 0 0 0 .375.381z" transform="translate(-426.874 -469.36)" style="fill:#323c6b"/>
        <path data-name="Path 67623" d="M452.45 528h-11.376a.374.374 0 1 0 0 .749h11.376a.374.374 0 1 0 0-.749z" transform="translate(-426.874 -510.324)" style="fill:#323c6b"/>
        <path data-name="Path 67624" d="M445.68 572.649a.375.375 0 0 0 0-.749h-4.594a.378.378 0 0 0 0 .756h4.594z" transform="translate(-426.886 -551.288)" style="fill:#333a60"/>
        <path data-name="Path 67625" d="M452.55 602.46a.379.379 0 0 0-.535 0l-2.762 2.762-.809-.843a.376.376 0 0 0-.542.522l1.077 1.117a.379.379 0 0 0 .535.007l.007-.007 3.029-3.029a.371.371 0 0 0 0-.529z" transform="translate(-433.494 -579.702)" style="fill:#333a60"/>
        <g data-name="Group 49195">
            <path data-name="Path 67626" d="M398.37 351.119h-16.124a2.043 2.043 0 0 1-2.04-2.04l-.007-21.1 4.481-4.481h13.69a2.044 2.044 0 0 1 2.04 2.04v23.54a2.044 2.044 0 0 1-2.04 2.041zM381.2 328.4l.007 20.684a1.042 1.042 0 0 0 1.037 1.037h16.126a1.042 1.042 0 0 0 1.037-1.037V325.54a1.042 1.042 0 0 0-1.037-1.037H385.1z" transform="translate(-370.42 -319.5)" style="fill:#333a60"/>
        </g>
    </g>
    <path data-name="Path 67598" d="m22.944 21.875-.467.433a.94.94 0 0 1-1.28 0c-.726-.669-5.917-5.5-6.052-5.612-.279.281-6.014 5.577-6.052 5.612a.94.94 0 0 1-1.28 0l-.467-.433a.936.936 0 0 1-.054-1.323q.026-.028.054-.054c2.032-1.886 5.047-4.678 7.8-7.23 2.751 2.552 5.766 5.345 7.8 7.23A.936.936 0 0 1 23 21.82l-.056.055z" transform="translate(-.697 1.793)" style="fill:#f26674"/>
    <path data-name="Path 67599" d="M75.8 87.7v7.155a.755.755 0 0 1-.753.753h-8.952a.752.752 0 0 1-.749-.753V87.7l5.228-4.848z" transform="translate(-56.126 -64.367)" style="fill:#ffdec7"/>
    <path data-name="Path 67600" d="M130.292 220.29v-5.353a.941.941 0 0 0-.941-.941h-2.614a.941.941 0 0 0-.941.941v5.353z" transform="translate(-113.598 -189.045)" style="fill:#f29b75"/>
    <path data-name="Path 67601" d="M150.537 137.4a1.082 1.082 0 1 1-1.082 1.082 1.082 1.082 0 0 1 1.082-1.082" transform="translate(-136.091 -116.222)" style="fill:#b2e5fb"/>
    <path data-name="Path 67602" d="M144.9 130.178a1.458 1.458 0 1 0 .427 1.031 1.456 1.456 0 0 0-.427-1.031m-1.031 1.736a.706.706 0 1 1 .706-.706.706.706 0 0 1-.706.706" transform="translate(-129.393 -108.95)" style="fill:#333a60"/>
    <path data-name="Path 67603" d="M16.648 13.094 15.9 12.4l-2.852-2.662-.746-.7c-1.071-1-1.938-1.8-3.571-3.315a.377.377 0 0 0-.511 0l-7.8 7.23a1.313 1.313 0 0 0-.074 1.856c.024.026.048.051.074.074l.466.432a1.322 1.322 0 0 0 1.791 0l.192-.178v6.292A1.129 1.129 0 0 0 4 22.563h8.95a1.13 1.13 0 0 0 1.129-1.129v-6.293l.192.178a1.322 1.322 0 0 0 1.792 0l.463-.431a1.306 1.306 0 0 0 .122-1.793m-6.3 8.717H6.6v-4.978a.565.565 0 0 1 .565-.564h2.616a.565.565 0 0 1 .565.564zm2.98-.376a.376.376 0 0 1-.376.376H11.1v-4.978a1.319 1.319 0 0 0-1.318-1.317H7.168a1.318 1.318 0 0 0-1.317 1.317v4.976H4a.376.376 0 0 1-.374-.376v-6.99c1.222-1.132 4.212-3.909 4.85-4.5l4.848 4.494zm2.72-7.132a.4.4 0 0 1-.033.032l-.462.432a.567.567 0 0 1-.768 0L8.926 9.34c-.353-.353-.5-.412-.875-.026-4.68 4.337-5.878 5.449-5.883 5.454a.566.566 0 0 1-.768 0l-.467-.433a.56.56 0 0 1-.034-.79.373.373 0 0 1 .035-.034l7.541-6.994c1.726 1.6 2.571 2.385 3.865 3.589l3.274 3.028c.1.1.227.211.4.372a.563.563 0 0 1 .033.8" transform="translate(6 9.057)" style="fill:#323c6b"/>
    <g data-name="Group 49197">
        <path data-name="Path 20741" d="M130.035 28.053a3.213 3.213 0 1 1-3.213-3.213 3.213 3.213 0 0 1 3.213 3.213zm0 0" transform="translate(-106.51 -.505)" style="fill:#fcd555"/>
        <path data-name="Path 20739" d="M121.179 25.981a3.57 3.57 0 1 0-3.57-3.57 3.57 3.57 0 0 0 3.57 3.57zm0-6.736a3.166 3.166 0 1 1-3.166 3.166 3.166 3.166 0 0 1 3.166-3.167zm0 0" transform="translate(-100.868 5.137)" style="stroke:#323c6b;stroke-width:.2px;fill:#323c6b"/>
        <path data-name="Path 20740" d="M187.06 72.733h-.007l-.6-.006a.2.2 0 0 0-.143.347l1.482 1.431a.2.2 0 1 0 .281-.291l-1.117-1.078h.1a1.105 1.105 0 0 0 1.079-.887h.413a.2.2 0 1 0 0-.4h-.413a1.1 1.1 0 0 0-.225-.5l.643.007a.2.2 0 1 0 0-.4l-1.494-.016-.6-.006a.2.2 0 0 0 0 .4l.6.006a.7.7 0 0 1 .661.5l-1.265-.014a.2.2 0 1 0 0 .4l1.265.014a.7.7 0 0 1-.66.493zm0 0" transform="translate(-167.196 -45.198)" style="fill:#333a60"/>
    </g>
</svg>
