<svg xmlns="http://www.w3.org/2000/svg" width="36" height="36" viewBox="0 0 36 36">
    <defs>
        <style>
            .cls-3{fill:#ddb387}.cls-6{fill:#333a60}
        </style>
    </defs>
    <g id="PL" transform="translate(-102 -285)">
        <path id="Rectangle_6234" data-name="Rectangle 6234" d="M0 0h36v36H0z" transform="translate(102 285)" style="fill:none"/>
        <g id="save" transform="translate(101.582 284.312)">
            <path id="Path_20522" data-name="Path 20522" d="M96.6 265.365a3.092 3.092 0 0 1 1.014 1.835l.764-.4 4.6-2.481.553-.3a2.511 2.511 0 0 1 3.344.914l-10.839 7.442a7.591 7.591 0 0 1-4.72.667l-6.265-1.154a2.331 2.331 0 0 0-1.7.226l-3.393 2.145-2.37-7.776.019-.006a4.075 4.075 0 0 0 1.967-.963l1.038-.924a6.939 6.939 0 0 1 7.192-.7l.43.207a4.948 4.948 0 0 0 2.157.494h4.169a3.08 3.08 0 0 1 2.048.773zm0 0" transform="translate(-70.938 -241.802)" style="fill:#ffd39f"/>
            <path id="Path_20523" data-name="Path 20523" class="cls-3" d="M319.791 264.2v.006l-4.6 2.481-.764.4a3.092 3.092 0 0 0-1.014-1.835l2.957-1.593.752-.4a2.122 2.122 0 0 1 2.665.944zm0 0" transform="translate(-287.758 -241.692)"/>
            <path id="Path_20524" data-name="Path 20524" class="cls-3" d="m282.459 259.991.036.068-2.957 1.593a3.08 3.08 0 0 0-2.048-.773h-.924l2.458-1.336a2.841 2.841 0 0 1 3.435.448zm0 0" transform="translate(-253.878 -238.089)"/>
            <path id="Path_20525" data-name="Path 20525" d="M139.739 32.9a8.065 8.065 0 1 1-8.065-8.065 8.065 8.065 0 0 1 8.065 8.065zm0 0" transform="translate(-113.256 -22.668)" style="fill:#fcd555"/>
            <path id="Path_20526" data-name="Path 20526" d="m14.527 284.845 1.093 3.586H8.091l-1.673-13.72h5.019l.72 2.358z" transform="translate(-5.517 -252.387)" style="fill:#5c9cee"/>
            <g id="Group_15781" data-name="Group 15781" transform="translate(.418 1.688)">
                <path id="Path_20528" data-name="Path 20528" class="cls-6" d="m32.359 254.376-.173.093a2.562 2.562 0 0 0-3.036-.751l-.01.006-.426.229a3.329 3.329 0 0 0-3.8-.337l-2.344 1.274h-3.125a4.491 4.491 0 0 1-1.947-.446l-.429-.207a7.394 7.394 0 0 0-7.694.75.251.251 0 0 0-.031.026l-1.038.924a3.587 3.587 0 0 1-1.336.749l-.585-1.919a.484.484 0 0 0-.463-.342H.9a.484.484 0 0 0-.48.542l1.673 13.721a.484.484 0 0 0 .48.425H10.1a.484.484 0 0 0 .463-.625l-.986-3.234 3.069-1.941a1.838 1.838 0 0 1 1.34-.174l.03.006 6.267 1.155a8.127 8.127 0 0 0 5.021-.71.479.479 0 0 0 .059-.035l10.839-7.442a.484.484 0 0 0 .141-.648 2.991 2.991 0 0 0-3.989-1.09zm-2.766.2a1.572 1.572 0 0 1 1.71.367l-4.09 2.206-.224.118a3.589 3.589 0 0 0-.546-.994zm-4.215-.116.012-.007a2.36 2.36 0 0 1 2.376.008l-2.053 1.106a3.574 3.574 0 0 0-1.29-.588zM3 268.146l-1.552-12.753h4.115l2.985 9.792.9 2.961zm21.85-5.406a7.15 7.15 0 0 1-4.387.61l-6.252-1.15a2.8 2.8 0 0 0-2.043.277l-.022.014-2.857 1.809-2.037-6.682a4.556 4.556 0 0 0 1.7-.953l1.023-.911a6.43 6.43 0 0 1 6.676-.641l.429.207a5.466 5.466 0 0 0 2.368.543h4.169a2.62 2.62 0 0 1 2.567 2.108l-3-.136a18.068 18.068 0 0 0-3.291.152.484.484 0 0 0 .133.959 17.125 17.125 0 0 1 3.114-.144l3.557.161h.022a.484.484 0 0 0 .484-.484c0-.072 0-.144-.007-.216l.478-.251 5.151-2.779a2.025 2.025 0 0 1 2.423.376zm0 0" transform="translate(-.418 -234.274)"/>
                <path id="Path_20530" data-name="Path 20530" class="cls-6" d="M126.158 35.938a8.549 8.549 0 1 0-8.549-8.549 8.549 8.549 0 0 0 8.549 8.549zm0-16.13a7.581 7.581 0 1 1-7.581 7.581 7.581 7.581 0 0 1 7.581-7.581zm0 0" transform="translate(-108.158 -18.84)"/>
                <path id="Path_20531" data-name="Path 20531" class="cls-6" d="M188.19 75.247h-.017l-1.434-.015a.484.484 0 0 0-.341.832l3.549 3.426a.484.484 0 1 0 .672-.7l-2.673-2.581h.245a2.646 2.646 0 0 0 2.585-2.123l.99.011h.005a.484.484 0 1 0 .005-.968l-.989-.011a2.625 2.625 0 0 0-.539-1.189l1.54.017h.005a.484.484 0 0 0 .005-.968l-3.578-.039-1.434-.015h-.005a.484.484 0 0 0-.005.968l1.434.015a1.671 1.671 0 0 1 1.583 1.2l-3.029-.033a.484.484 0 1 0-.01.968l3.029.032a1.675 1.675 0 0 1-1.593 1.173zm0 0" transform="translate(-171.262 -66.729)"/>
            </g>
        </g>
    </g>
</svg>
