<svg xmlns="http://www.w3.org/2000/svg" width="36" height="36" viewBox="0 0 36 36">
    <defs>
        <style>
            .cls-2{fill:#a79ba7}.cls-3{fill:#918291}.cls-4{fill:#f9f7f8}.cls-5{fill:#85ccfc}.cls-6{fill:#69b3ea}
        </style>
    </defs>
    <g id="b2b" transform="translate(-102 -285)">
        <path id="Rectangle_6234" data-name="Rectangle 6234" d="M0 0h36v36H0z" transform="translate(102 285)" style="fill:none"/>
        <g id="delivery-bike" transform="translate(104 248.073)">
            <g id="Group_43792" data-name="Group 43792" transform="translate(0 40.8)">
                <g id="Group_43791" data-name="Group 43791" transform="translate(.494 .494)">
                    <g id="Group_43790" data-name="Group 43790">
                        <path id="Path_20720" data-name="Path 20720" class="cls-2" d="M365.2 362.85a4.052 4.052 0 0 0 2.9 3.886 3.992 3.992 0 0 0 1.159.033 3.621 3.621 0 0 0 3.655-3.919c0-2.233-1.423-4.05-3.655-4.05a4.045 4.045 0 0 0-4.059 4.05z" transform="translate(-341.642 -338.35)"/>
                        <path id="Path_20721" data-name="Path 20721" class="cls-3" d="M414.31 362.757a4.048 4.048 0 0 1-4.05 4.05 4.213 4.213 0 0 1-1.159-.165 4.054 4.054 0 0 0 0-7.772 3.98 3.98 0 0 1 1.159-.171 4.053 4.053 0 0 1 4.05 4.057z" transform="translate(-382.65 -338.257)"/>
                        <path id="Path_20722" data-name="Path 20722" class="cls-2" d="M54.133 216.6h-8.4a1.436 1.436 0 1 0 0 2.872h1.344l4.261.659 2.792-.659a1.436 1.436 0 0 0 0-2.872z" transform="translate(-41.876 -205.516)"/>
                        <path id="Path_20723" data-name="Path 20723" class="cls-3" d="M172.693 216.6H169.4a1.436 1.436 0 0 1 0 2.872l1.39.659 1.4-.659h.507a1.436 1.436 0 1 0 0-2.872z" transform="translate(-158.737 -205.516)"/>
                        <circle id="Ellipse_231" data-name="Ellipse 231" class="cls-4" cx="1.739" cy="1.739" r="1.739" transform="translate(25.87 22.748)"/>
                        <path id="Path_20724" data-name="Path 20724" class="cls-5" d="M354.024 314.971a5.562 5.562 0 0 0-.988-.039 5.125 5.125 0 0 0-4.136 5.032v.171a.866.866 0 0 0 .863.863h6.474l1.877-.263c.573 0 .178-.2.178-.771 0-2.832-1.436-4.992-4.268-4.992z" transform="translate(-326.415 -297.353)"/>
                        <path id="Path_20725" data-name="Path 20725" class="cls-6" d="M417.812 318.924a1.032 1.032 0 0 1-1.034 1.034H414.8a1.032 1.032 0 0 0 1.034-1.034 5.122 5.122 0 0 0-4.134-5.024 4.928 4.928 0 0 1 .988-.1 5.127 5.127 0 0 1 5.124 5.124z" transform="translate(-385.079 -296.314)"/>
                        <path id="Path_20726" data-name="Path 20726" d="M31.012 106.3H9.7a2.2 2.2 0 0 1-2.2-2.2v-4.116a4.941 4.941 0 0 1 4.94-4.94h8.46a1.572 1.572 0 0 1 1.488 2.075l-1.113 3.293a1.57 1.57 0 0 0 1.027 2c.145.046.3.329.461.329h5.513c.171 0 .336-.29.494-.336a1.658 1.658 0 0 0 1.133-1.3 49.447 49.447 0 0 0-.138-17.7h2.114c2.47 6.125 2.845 12.593 2.76 19.31a3.63 3.63 0 0 1-3.622 3.589z" transform="translate(-7.5 -81.088)" style="fill:#ffa0a4"/>
                        <path id="Path_20727" data-name="Path 20727" d="M360.1 102.71a3.626 3.626 0 0 1-3.622 3.589H354.5a3.626 3.626 0 0 0 3.622-3.589A49.524 49.524 0 0 0 354.7 83.4h1.976a49.644 49.644 0 0 1 3.424 19.31z" transform="translate(-331.646 -81.088)" style="fill:#ff888a"/>
                        <path id="Path_20728" data-name="Path 20728" class="cls-2" d="M53.1 362.85a4.052 4.052 0 0 0 2.9 3.886 3.992 3.992 0 0 0 1.159.033 3.621 3.621 0 0 0 3.655-3.919c0-2.233-1.423-4.05-3.655-4.05a4.049 4.049 0 0 0-4.059 4.05z" transform="translate(-50.097 -338.35)"/>
                        <path id="Path_20729" data-name="Path 20729" class="cls-3" d="M102.31 362.757a4.052 4.052 0 0 1-4.05 4.05 4.213 4.213 0 0 1-1.159-.165 4.057 4.057 0 0 0 0-7.772 3.98 3.98 0 0 1 1.159-.171 4.057 4.057 0 0 1 4.05 4.057z" transform="translate(-91.199 -338.257)"/>
                        <path id="Path_20730" data-name="Path 20730" class="cls-4" d="M238.661 371.9v1a.987.987 0 0 1-.988.988h-4.485a.987.987 0 0 1-.988-.988v-.988a1.489 1.489 0 0 0 .454.066h5.513a1.521 1.521 0 0 0 .494-.079z" transform="translate(-217.401 -350.587)"/>
                        <circle id="Ellipse_232" data-name="Ellipse 232" class="cls-4" cx="1.739" cy="1.739" r="1.739" transform="rotate(-9.323 143.98 -19.6)"/>
                        <path id="Path_20731" data-name="Path 20731" class="cls-5" d="M42.024 315.233c-.336 0-.665-.23-.988-.171a5.125 5.125 0 0 0-4.136 5.032 1.032 1.032 0 0 0 1.034 1.034h6.277l1.574-.2c.573 0 1.034-.263 1.034-.836a4.634 4.634 0 0 0-4.795-4.859z" transform="translate(-34.964 -297.484)"/>
                        <path id="Path_20732" data-name="Path 20732" class="cls-6" d="M105.812 318.924a1.032 1.032 0 0 1-1.034 1.034H102.8a1.032 1.032 0 0 0 1.034-1.034A5.122 5.122 0 0 0 99.7 313.9a4.88 4.88 0 0 1 .988-.1 5.127 5.127 0 0 1 5.124 5.124z" transform="translate(-93.628 -296.314)"/>
                        <path id="Path_20733" data-name="Path 20733" class="cls-2" d="M276.35 76.315h-5.242a1.008 1.008 0 1 1 0-2.015h5.242z" transform="translate(-252.805 -72.588)"/>
                        <path id="Path_20734" data-name="Path 20734" class="cls-4" d="M326.272 52.97h-3.695a1.876 1.876 0 0 1-.461-3.695l3.583-.9a2.539 2.539 0 0 1 .58-.072c1.251 0 .349 1.014.349 2.338 0 1.172 1.12 2.14-.007 2.312a3.016 3.016 0 0 1-.349.02z" transform="translate(-300.072 -48.3)"/>
                        <path id="Path_20735" data-name="Path 20735" d="M396.352 52.6a2.335 2.335 0 0 1-.685 1.653c-.342.342-.534.316-1.034.4-.132-.112-.25.026-.362-.105a3.32 3.32 0 0 1-.2-3.991c.066-.1.138-.059.211-.151a2.008 2.008 0 0 1 2.07 2.194z" transform="translate(-368.078 -50.261)" style="fill:#ffebab"/>
                        <path id="Path_20736" data-name="Path 20736" d="M404.742 50.638a2.335 2.335 0 0 1-.685 1.653 2.36 2.36 0 0 1-1.3.659 2.8 2.8 0 0 1-.362-.375 2.371 2.371 0 0 0 .342-.283 2.337 2.337 0 0 0-.54-3.708c.066-.1.138-.191.211-.283a2.337 2.337 0 0 1 2.331 2.338z" transform="translate(-376.205 -48.3)" style="fill:#ffe181"/>
                    </g>
                </g>
                <path id="Path_20737" data-name="Path 20737" d="M33.721 63.9a5.615 5.615 0 0 0-4.406-5.48 52.519 52.519 0 0 0-.435-4.169s-.217-1.686-.369-2.173a48.512 48.512 0 0 0-1.442-5.644 2.832 2.832 0 0 0-.362-5.638h-.013a2.762 2.762 0 0 0-.692.086l-3.583.9a2.366 2.366 0 0 0-1.192.724H18.8a1.5 1.5 0 0 0 0 3h2.312a2.39 2.39 0 0 0 1.614.929 50.23 50.23 0 0 1-.323 14.786 1.142 1.142 0 0 1-1.139.962h-5.51a1.076 1.076 0 0 1-1.021-1.423l1.113-3.293a2.067 2.067 0 0 0-.2-1.758 1.857 1.857 0 0 0-.191-.257 1.929 1.929 0 0 0-.994-3.583H10.6l-1.291-.013h-.24l-4.969.022h-.01a1.853 1.853 0 0 0-1.456.988h.033a1.9 1.9 0 0 0-.244.81c0 .046-.007.092-.007.132a.973.973 0 0 0 .007.138A1.921 1.921 0 0 0 3.1 55.27c-.007.007-.02.007-.026.013a5.556 5.556 0 0 0-1.614 1.185A5.494 5.494 0 0 0 0 60.189v4.116A2.7 2.7 0 0 0 2.694 67h.474a4.548 4.548 0 0 0 8.773 0h11.782a4.546 4.546 0 0 0 8.931-1.2c0-.145-.007-.283-.02-.428a1.54 1.54 0 0 0 1.087-1.472zM20.667 44.528H18.8a.514.514 0 1 1 0-1.027h1.9a2.439 2.439 0 0 0-.033 1.027zm7.877 20.9h.751a1.338 1.338 0 0 1 .053.362 1.242 1.242 0 0 1-2.213.777 4.223 4.223 0 0 0 1.409-1.135zm-1.653-23.574.033-.053a1.938 1.938 0 0 1 .428.105 2.109 2.109 0 0 1 .474.263 1.838 1.838 0 0 1-.316 3.1 1.364 1.364 0 0 1-.31.119c-.046-.053-.092-.1-.138-.151a2.83 2.83 0 0 1-.171-3.385zM23 45.47a1.382 1.382 0 0 1-.863-2.463 1.469 1.469 0 0 1 .527-.263l3.049-.771a3.809 3.809 0 0 0-.29 1.462 1.376 1.376 0 0 0 .007.165 3.769 3.769 0 0 0 .586 1.87zm-7.207 17.71h5.473v.428a.5.5 0 0 1-.494.494h-4.485a.5.5 0 0 1-.494-.494zM4.353 52.866h10.1a.945.945 0 0 1 0 1.89h-10.1a.959.959 0 0 1-.494-.138l-.033-.02a.948.948 0 0 1 .527-1.732zm6.685 13.64a3.568 3.568 0 0 1-3.491 2.845c-.119 0-.231-.007-.342-.013a3.569 3.569 0 0 1-3.142-2.832 3.619 3.619 0 0 1-.072-.711 3.338 3.338 0 0 1 .02-.362h1.337a2.182 2.182 0 0 0-.026.362 2.121 2.121 0 0 0 .119.711 2.235 2.235 0 0 0 2.114 1.521 2.244 2.244 0 0 0 2.114-1.521 2.3 2.3 0 0 0 .119-.711 2.182 2.182 0 0 0-.026-.362H11.1a3.338 3.338 0 0 1 .02.362 4.2 4.2 0 0 1-.082.71zm-4.729-.711a1.338 1.338 0 0 1 .053-.362H8.74a1.338 1.338 0 0 1 .053.362 1.266 1.266 0 0 1-.224.711 1.243 1.243 0 0 1-2.042 0 1.26 1.26 0 0 1-.218-.712zm5.335-1.35H3.458a.543.543 0 0 1-.54-.54 4.632 4.632 0 0 1 4.63-4.63c.079 0 .158 0 .231.007a4.635 4.635 0 0 1 4.4 4.623.533.533 0 0 1-.535.539zm.448 1.567c0-.072.007-.145.007-.217 0-.145-.007-.283-.02-.428a1.523 1.523 0 0 0 1.093-1.467 5.618 5.618 0 1 0-11.236 0 1.523 1.523 0 0 0 1.094 1.466 4.715 4.715 0 0 0-.013.645h-.323a1.706 1.706 0 0 1-1.706-1.705v-4.117A4.453 4.453 0 0 1 5.1 55.757c.059-.007.125-.007.184-.013.632-.033 3.168-.013 4.386 0h4.3c.013 0 .033.007.046.007a1.082 1.082 0 0 1 .777.494 1.068 1.068 0 0 1 .105.915l-1.113 3.293a2.046 2.046 0 0 0 .277 1.864 2.075 2.075 0 0 0 .724.632v.659a1.484 1.484 0 0 0 1.482 1.482h4.485a1.484 1.484 0 0 0 1.482-1.482v-.665a2.138 2.138 0 0 0 1.126-1.554 51.19 51.19 0 0 0 .342-14.924h2.325a45.409 45.409 0 0 1 1.5 5.8s.349 1.679.362 2.154V54.4a.059.059 0 0 0 .007.033c.2 1.416.356 2.872.441 4.36 0 .046.007.086.007.132l.02.382c.04.81.066 1.627.072 2.45v1.153a3.16 3.16 0 0 1-2.088 2.911 2.348 2.348 0 0 1-.435.119 3.116 3.116 0 0 1-.604.06H12.092zM28.1 69.351c-.119 0-.231-.007-.342-.013a3.565 3.565 0 0 1-3-2.338h.566a4.045 4.045 0 0 0 .85-.092A2.246 2.246 0 0 0 28.1 68.02a2.229 2.229 0 0 0 2.233-2.226 3.232 3.232 0 0 0-.026-.362h1.337a3.338 3.338 0 0 1 .02.362 3.568 3.568 0 0 1-3.564 3.557zm4.353-4.979a.505.505 0 0 1-.263.066h-3.066l.02-.053a5.292 5.292 0 0 0 .184-.573 4.018 4.018 0 0 0 .112-.9c.007-.316.007-.626.007-.935v-.02c0-.672-.02-1.344-.04-2l-.02-.507a4.583 4.583 0 0 1 2.358 1.574 4.619 4.619 0 0 1 .994 2.878.552.552 0 0 1-.283.47z" transform="translate(0 -40.8)" style="fill:#323c6b"/>
            </g>
            <path id="Path_20738" data-name="Path 20738" d="M59.868 225.884h-7.146a.925.925 0 0 1-.922-.922v-.04a.925.925 0 0 1 .922-.922h7.152v1.884z" transform="translate(-48.388 -171.134)" style="fill:#911717"/>
        </g>
        <path id="Path_20741" data-name="Path 20741" d="M136.207 31.139a6.3 6.3 0 1 1-6.3-6.3 6.3 6.3 0 0 1 6.3 6.3zm0 0" transform="translate(-19.908 262.41)" style="fill:#fcd555"/>
        <path id="Path_20739" data-name="Path 20739" d="M124.609 32.84a7 7 0 1 0-7-7 7 7 0 0 0 7 7zm0-13.207a6.208 6.208 0 1 1-6.209 6.207 6.208 6.208 0 0 1 6.209-6.208zm0 0" transform="translate(-14.609 267.709)" style="stroke:#323c6b;stroke-width:.2px;fill:#323c6b"/>
        <path id="Path_20740" data-name="Path 20740" d="M187.838 74.465h-.014l-1.174-.013a.4.4 0 0 0-.279.681l2.906 2.805a.4.4 0 1 0 .551-.57l-2.189-2.113h.2a2.167 2.167 0 0 0 2.116-1.738l.81.009a.4.4 0 1 0 0-.792l-.81-.009a2.149 2.149 0 0 0-.441-.974l1.261.014a.4.4 0 1 0 0-.792l-2.93-.032-1.174-.013a.4.4 0 0 0 0 .792l1.174.013a1.368 1.368 0 0 1 1.3.983l-2.481-.027a.4.4 0 1 0-.009.792l2.48.027a1.372 1.372 0 0 1-1.297.957zm0 0" transform="translate(-78.716 219.059)" style="fill:#333a60"/>
    </g>
</svg>
